#N canvas 1299 56 455 240 10;
#N canvas 1820 466 628 408 set_rainwaves 0;
#X floatatom 276 31 8 0 0 1 Brainwave br -;
#X floatatom 276 82 8 0 0 1 Isochronic_Tone - vbn;
#X obj 276 56 * 60;
#X floatatom 433 31 8 0 0 1 Original_BPM vbn -;
#X floatatom 433 83 8 0 0 1 BPM - 4re;
#X obj 433 56 / 2;
#X floatatom 276 103 8 0 0 1 Original_BPM vbn -;
#X floatatom 276 155 8 0 0 1 BPM - 5re;
#X floatatom 433 102 8 0 0 1 Original_BPM vbn -;
#X floatatom 433 154 8 0 0 1 BPM - 6re;
#X obj 276 128 / 4;
#X obj 433 127 / 8;
#X floatatom 276 176 8 0 0 1 Original_BPM vbn -;
#X floatatom 276 228 8 0 0 1 BPM - 7re;
#X floatatom 433 175 8 0 0 1 Original_BPM vbn -;
#X floatatom 433 227 8 0 0 1 BPM - 8re;
#X obj 276 201 / 12;
#X obj 433 200 / 16;
#X floatatom 276 250 8 0 0 1 Original_BPM vbn -;
#X floatatom 276 302 8 0 0 1 BPM - 9re;
#X floatatom 433 249 8 0 0 1 Original_BPM vbn -;
#X floatatom 433 301 8 0 0 1 BPM - 10re;
#X obj 276 275 / 24;
#X obj 433 274 / 32;
#X floatatom 314 57 8 0 0 1 - - 2re;
#X obj 28 23 hradio 15 1 0 8 empty fee empty 0 -8 0 10 -262144 -1 -1
7;
#X floatatom 170 51 8 0 0 0 - 1ww -;
#X floatatom 170 69 8 0 0 0 - 2ww -;
#X floatatom 170 87 8 0 0 0 - 3ww -;
#X floatatom 170 105 8 0 0 0 - 4ww -;
#X floatatom 170 123 8 0 0 0 - 5ww -;
#X floatatom 170 141 8 0 0 0 - 6ww -;
#X floatatom 170 159 8 0 0 0 - 7ww -;
#X floatatom 170 177 8 0 0 0 - 8ww -;
#X floatatom 28 165 8 0 0 0 - - -;
#X floatatom 126 304 8 0 0 0 - - -;
#X floatatom 41 185 8 0 0 0 - - -;
#X floatatom 55 205 8 0 0 0 - - -;
#X floatatom 69 225 8 0 0 0 - - -;
#X floatatom 83 244 8 0 0 0 - - -;
#X floatatom 97 264 8 0 0 0 - - -;
#X floatatom 111 284 8 0 0 0 - - -;
#X obj 28 75 bng 15 250 50 0 empty empty empty 17 7 0 10 -262144 -1
-1;
#X obj 28 51 sel 0 1 2 3 4 5 6 7;
#X obj 41 93 bng 15 250 50 0 empty empty empty 17 7 0 10 -262144 -1
-1;
#X obj 55 111 bng 15 250 50 0 empty empty empty 17 7 0 10 -262144 -1
-1;
#X obj 69 129 bng 15 250 50 0 empty empty empty 17 7 0 10 -262144 -1
-1;
#X obj 83 147 bng 15 250 50 0 empty empty empty 17 7 0 10 -262144 -1
-1;
#X obj 97 165 bng 15 250 50 0 empty empty empty 17 7 0 10 -262144 -1
-1;
#X obj 111 183 bng 15 250 50 0 empty empty empty 17 7 0 10 -262144
-1 -1;
#X obj 125 201 bng 15 250 50 0 empty empty empty 17 7 0 10 -262144
-1 -1;
#X obj 26 313 float;
#X floatatom 26 338 8 0 0 0 - - bapis;
#N canvas 1379 71 1185 549 set_brainwaves 0;
#X msg 155 68 61.7354;
#X msg 155 86 30.8677;
#X msg 155 105 15.4338;
#X msg 155 124 7.71692;
#X msg 155 143 3.85846;
#X msg 155 162 1.92923;
#X msg 155 181 0.96461;
#X msg 155 200 0.4823;
#X msg 155 219 0.24115;
#X obj 23 52 sel 0 1 2 3 4 5 6 7 8;
#X obj 23 30 hradio 15 1 0 9 empty B B 0 -8 0 10 -262144 -1 -1 0;
#X obj 213 52 sel 0 1 2 3 4 5 6 7 8;
#X obj 213 30 hradio 15 1 0 9 empty A$ $A 0 -8 0 10 -262144 -1 -1 0
;
#X obj 400 50 sel 0 1 2 3 4 5 6 7 8;
#X obj 400 28 hradio 15 1 0 9 empty A A 0 -8 0 10 -262144 -1 -1 0;
#X obj 590 50 sel 0 1 2 3 4 5 6 7 8;
#X obj 590 28 hradio 15 1 0 9 empty G$ $G 0 -8 0 10 -262144 -1 -1 0
;
#X obj 775 48 sel 0 1 2 3 4 5 6 7 8;
#X obj 775 26 hradio 15 1 0 9 empty G G 0 -8 0 10 -262144 -1 -1 0;
#X obj 965 48 sel 0 1 2 3 4 5 6 7 8;
#X obj 965 26 hradio 15 1 0 9 empty F$ $F 0 -8 0 10 -262144 -1 -1 0
;
#X obj 23 308 sel 0 1 2 3 4 5 6 7 8;
#X obj 23 286 hradio 15 1 0 9 empty F F 0 -8 0 10 -262144 -1 -1 0;
#X obj 213 308 sel 0 1 2 3 4 5 6 7 8;
#X obj 213 286 hradio 15 1 0 9 empty E E 0 -8 0 10 -262144 -1 -1 0
;
#X obj 400 306 sel 0 1 2 3 4 5 6 7 8;
#X obj 400 284 hradio 15 1 0 9 empty D$ $D 0 -8 0 10 -262144 -1 -1
0;
#X obj 590 306 sel 0 1 2 3 4 5 6 7 8;
#X obj 590 284 hradio 15 1 0 9 empty D D 0 -8 0 10 -262144 -1 -1 0
;
#X obj 775 304 sel 0 1 2 3 4 5 6 7 8;
#X obj 775 282 hradio 15 1 0 9 empty C$ $C 0 -8 0 10 -262144 -1 -1
0;
#X obj 965 304 sel 0 1 2 3 4 5 6 7 8;
#X obj 965 282 hradio 15 1 0 9 empty C C 0 -8 0 10 -262144 -1 -1 2
;
#X msg 345 68 58.2705;
#X msg 345 86 29.1352;
#X msg 345 105 14.5676;
#X msg 345 124 7.28381;
#X msg 345 143 3.6419;
#X msg 345 162 1.82095;
#X msg 345 181 0.91047;
#X msg 345 200 0.45523;
#X msg 345 219 0.22761;
#X msg 532 66 55;
#X msg 532 84 27.5;
#X msg 532 103 13.75;
#X msg 532 122 6.875;
#X msg 532 141 3.4375;
#X msg 532 160 1.71875;
#X msg 532 179 0.85937;
#X msg 532 198 0.42968;
#X msg 532 217 0.21484;
#X msg 722 66 51.9131;
#X msg 722 84 25.9565;
#X msg 722 103 12.9782;
#X msg 722 122 6.48913;
#X msg 722 141 3.24456;
#X msg 722 160 1.62228;
#X msg 722 179 0.81114;
#X msg 722 198 0.40557;
#X msg 722 217 0.20278;
#X msg 907 64 48.9994;
#X msg 907 82 24.4997;
#X msg 907 101 12.2498;
#X msg 907 120 6.12492;
#X msg 907 139 3.06246;
#X msg 907 158 1.53123;
#X msg 907 177 0.76561;
#X msg 907 196 0.3828;
#X msg 907 215 0.1914;
#X msg 1097 64 46.2493;
#X msg 1097 82 23.1246;
#X msg 1097 101 11.5623;
#X msg 1097 120 5.78116;
#X msg 1097 139 2.89058;
#X msg 1097 158 1.44529;
#X msg 1097 177 0.72264;
#X msg 1097 196 0.36132;
#X msg 1097 215 0.18066;
#X msg 155 324 43.6535;
#X msg 155 342 21.8267;
#X msg 155 361 10.9133;
#X msg 155 380 5.45668;
#X msg 155 399 2.89058;
#X msg 155 418 1.36417;
#X msg 155 437 0.68208;
#X msg 155 456 0.34104;
#X msg 155 475 0.17052;
#X msg 345 324 41.2034;
#X msg 345 342 20.6017;
#X msg 345 361 10.3008;
#X msg 345 380 5.15042;
#X msg 345 399 2.57521;
#X msg 345 418 1.2876;
#X msg 345 437 0.6438;
#X msg 345 456 0.3219;
#X msg 345 475 0.16095;
#X msg 532 322 38.8909;
#X msg 532 340 19.4454;
#X msg 532 359 9.72272;
#X msg 532 378 4.86136;
#X msg 532 397 2.43068;
#X msg 532 416 1.21534;
#X msg 532 435 0.60767;
#X msg 532 454 0.30383;
#X msg 532 473 0.15191;
#X msg 722 322 36.7081;
#X msg 722 340 18.354;
#X msg 722 359 9.17702;
#X msg 722 378 4.58851;
#X msg 722 397 2.29425;
#X msg 722 416 1.14712;
#X msg 722 435 0.57356;
#X msg 722 454 0.28678;
#X msg 722 473 0.14339;
#X msg 907 320 34.6478;
#X msg 907 338 17.3239;
#X msg 907 357 8.66195;
#X msg 907 376 4.33097;
#X msg 907 395 2.16548;
#X msg 907 414 1.08274;
#X msg 907 433 0.54137;
#X msg 907 452 0.27068;
#X msg 907 471 0.13534;
#X msg 1097 320 32.7032;
#X msg 1097 338 16.3516;
#X msg 1097 357 8.1758;
#X msg 1097 376 4.0879;
#X msg 1097 395 2.04395;
#X msg 1097 414 1.02197;
#X msg 1097 433 0.51098;
#X msg 1097 452 0.25549;
#X msg 1097 471 0.12774;
#X floatatom 23 233 8 0 0 0 - - br;
#X floatatom 219 234 8 0 0 0 - - br;
#X floatatom 407 231 8 0 0 0 - - br;
#X floatatom 592 231 8 0 0 0 - - br;
#X floatatom 778 229 8 0 0 0 - - br;
#X floatatom 965 229 8 0 0 0 - - br;
#X floatatom 25 490 8 0 0 0 - - br;
#X floatatom 222 490 8 0 0 0 - - br;
#X floatatom 410 486 8 0 0 0 - - br;
#X floatatom 594 487 8 0 0 0 - - br;
#X floatatom 783 485 8 0 0 0 - - br;
#X floatatom 973 485 8 0 0 0 - - br;
#X connect 0 0 132 0;
#X connect 1 0 132 0;
#X connect 2 0 132 0;
#X connect 3 0 132 0;
#X connect 4 0 132 0;
#X connect 5 0 132 0;
#X connect 6 0 132 0;
#X connect 7 0 132 0;
#X connect 8 0 132 0;
#X connect 9 0 0 0;
#X connect 9 1 1 0;
#X connect 9 2 2 0;
#X connect 9 3 3 0;
#X connect 9 4 4 0;
#X connect 9 5 5 0;
#X connect 9 6 6 0;
#X connect 9 7 7 0;
#X connect 9 8 8 0;
#X connect 10 0 9 0;
#X connect 11 0 33 0;
#X connect 11 1 34 0;
#X connect 11 2 35 0;
#X connect 11 3 36 0;
#X connect 11 4 37 0;
#X connect 11 5 38 0;
#X connect 11 6 39 0;
#X connect 11 7 40 0;
#X connect 11 8 41 0;
#X connect 12 0 11 0;
#X connect 13 0 42 0;
#X connect 13 1 43 0;
#X connect 13 2 44 0;
#X connect 13 3 45 0;
#X connect 13 4 46 0;
#X connect 13 5 47 0;
#X connect 13 6 48 0;
#X connect 13 7 49 0;
#X connect 13 8 50 0;
#X connect 14 0 13 0;
#X connect 15 0 51 0;
#X connect 15 1 52 0;
#X connect 15 2 53 0;
#X connect 15 3 54 0;
#X connect 15 4 55 0;
#X connect 15 5 56 0;
#X connect 15 6 57 0;
#X connect 15 7 58 0;
#X connect 15 8 59 0;
#X connect 16 0 15 0;
#X connect 17 0 60 0;
#X connect 17 1 61 0;
#X connect 17 2 62 0;
#X connect 17 3 63 0;
#X connect 17 4 64 0;
#X connect 17 5 65 0;
#X connect 17 6 66 0;
#X connect 17 7 67 0;
#X connect 17 8 68 0;
#X connect 18 0 17 0;
#X connect 19 0 69 0;
#X connect 19 1 70 0;
#X connect 19 2 71 0;
#X connect 19 3 72 0;
#X connect 19 4 73 0;
#X connect 19 5 74 0;
#X connect 19 6 75 0;
#X connect 19 7 76 0;
#X connect 19 8 77 0;
#X connect 20 0 19 0;
#X connect 21 0 78 0;
#X connect 21 1 79 0;
#X connect 21 2 80 0;
#X connect 21 3 81 0;
#X connect 21 4 82 0;
#X connect 21 5 83 0;
#X connect 21 6 84 0;
#X connect 21 7 85 0;
#X connect 21 8 86 0;
#X connect 22 0 21 0;
#X connect 23 0 87 0;
#X connect 23 1 88 0;
#X connect 23 2 89 0;
#X connect 23 3 90 0;
#X connect 23 4 91 0;
#X connect 23 5 92 0;
#X connect 23 6 93 0;
#X connect 23 7 94 0;
#X connect 23 8 95 0;
#X connect 24 0 23 0;
#X connect 25 0 96 0;
#X connect 25 1 97 0;
#X connect 25 2 98 0;
#X connect 25 3 99 0;
#X connect 25 4 100 0;
#X connect 25 5 101 0;
#X connect 25 6 102 0;
#X connect 25 7 103 0;
#X connect 25 8 104 0;
#X connect 26 0 25 0;
#X connect 27 0 105 0;
#X connect 27 1 106 0;
#X connect 27 2 107 0;
#X connect 27 3 108 0;
#X connect 27 4 109 0;
#X connect 27 5 110 0;
#X connect 27 6 111 0;
#X connect 27 7 112 0;
#X connect 27 8 113 0;
#X connect 28 0 27 0;
#X connect 29 0 114 0;
#X connect 29 1 115 0;
#X connect 29 2 116 0;
#X connect 29 3 117 0;
#X connect 29 4 118 0;
#X connect 29 5 119 0;
#X connect 29 6 120 0;
#X connect 29 7 121 0;
#X connect 29 8 122 0;
#X connect 30 0 29 0;
#X connect 31 0 123 0;
#X connect 31 1 124 0;
#X connect 31 2 125 0;
#X connect 31 3 126 0;
#X connect 31 4 127 0;
#X connect 31 5 128 0;
#X connect 31 6 129 0;
#X connect 31 7 130 0;
#X connect 31 8 131 0;
#X connect 32 0 31 0;
#X connect 33 0 133 0;
#X connect 34 0 133 0;
#X connect 35 0 133 0;
#X connect 36 0 133 0;
#X connect 37 0 133 0;
#X connect 38 0 133 0;
#X connect 39 0 133 0;
#X connect 40 0 133 0;
#X connect 41 0 133 0;
#X connect 42 0 134 0;
#X connect 43 0 134 0;
#X connect 44 0 134 0;
#X connect 45 0 134 0;
#X connect 46 0 134 0;
#X connect 47 0 134 0;
#X connect 48 0 134 0;
#X connect 49 0 134 0;
#X connect 50 0 134 0;
#X connect 51 0 135 0;
#X connect 52 0 135 0;
#X connect 53 0 135 0;
#X connect 54 0 135 0;
#X connect 55 0 135 0;
#X connect 56 0 135 0;
#X connect 57 0 135 0;
#X connect 58 0 135 0;
#X connect 59 0 135 0;
#X connect 60 0 136 0;
#X connect 61 0 136 0;
#X connect 62 0 136 0;
#X connect 63 0 136 0;
#X connect 64 0 136 0;
#X connect 65 0 136 0;
#X connect 66 0 136 0;
#X connect 67 0 136 0;
#X connect 68 0 136 0;
#X connect 69 0 137 0;
#X connect 70 0 137 0;
#X connect 71 0 137 0;
#X connect 72 0 137 0;
#X connect 73 0 137 0;
#X connect 74 0 137 0;
#X connect 75 0 137 0;
#X connect 76 0 137 0;
#X connect 77 0 137 0;
#X connect 78 0 138 0;
#X connect 79 0 138 0;
#X connect 80 0 138 0;
#X connect 81 0 138 0;
#X connect 82 0 138 0;
#X connect 83 0 138 0;
#X connect 84 0 138 0;
#X connect 85 0 138 0;
#X connect 86 0 138 0;
#X connect 87 0 139 0;
#X connect 88 0 139 0;
#X connect 89 0 139 0;
#X connect 90 0 139 0;
#X connect 91 0 139 0;
#X connect 92 0 139 0;
#X connect 93 0 139 0;
#X connect 94 0 139 0;
#X connect 95 0 139 0;
#X connect 96 0 140 0;
#X connect 97 0 140 0;
#X connect 98 0 140 0;
#X connect 99 0 140 0;
#X connect 100 0 140 0;
#X connect 101 0 140 0;
#X connect 102 0 140 0;
#X connect 103 0 140 0;
#X connect 104 0 140 0;
#X connect 105 0 141 0;
#X connect 106 0 141 0;
#X connect 107 0 141 0;
#X connect 108 0 141 0;
#X connect 109 0 141 0;
#X connect 110 0 141 0;
#X connect 111 0 141 0;
#X connect 112 0 141 0;
#X connect 113 0 141 0;
#X connect 114 0 142 0;
#X connect 115 0 142 0;
#X connect 116 0 142 0;
#X connect 117 0 142 0;
#X connect 118 0 142 0;
#X connect 119 0 142 0;
#X connect 120 0 142 0;
#X connect 121 0 142 0;
#X connect 122 0 142 0;
#X connect 123 0 143 0;
#X connect 124 0 143 0;
#X connect 125 0 143 0;
#X connect 126 0 143 0;
#X connect 127 0 143 0;
#X connect 128 0 143 0;
#X connect 129 0 143 0;
#X connect 130 0 143 0;
#X connect 131 0 143 0;
#X restore 24 367 pd set_brainwaves;
#X connect 0 0 2 0;
#X connect 2 0 1 0;
#X connect 2 0 24 0;
#X connect 3 0 5 0;
#X connect 5 0 4 0;
#X connect 6 0 10 0;
#X connect 8 0 11 0;
#X connect 10 0 7 0;
#X connect 11 0 9 0;
#X connect 12 0 16 0;
#X connect 14 0 17 0;
#X connect 16 0 13 0;
#X connect 17 0 15 0;
#X connect 18 0 22 0;
#X connect 20 0 23 0;
#X connect 22 0 19 0;
#X connect 23 0 21 0;
#X connect 25 0 43 0;
#X connect 26 0 34 0;
#X connect 27 0 36 0;
#X connect 28 0 37 0;
#X connect 29 0 38 0;
#X connect 30 0 39 0;
#X connect 31 0 40 0;
#X connect 32 0 41 0;
#X connect 33 0 35 0;
#X connect 34 0 51 0;
#X connect 35 0 51 0;
#X connect 36 0 51 0;
#X connect 37 0 51 0;
#X connect 38 0 51 0;
#X connect 39 0 51 0;
#X connect 40 0 51 0;
#X connect 41 0 51 0;
#X connect 42 0 34 0;
#X connect 43 0 42 0;
#X connect 43 1 44 0;
#X connect 43 2 45 0;
#X connect 43 3 46 0;
#X connect 43 4 47 0;
#X connect 43 5 48 0;
#X connect 43 6 49 0;
#X connect 43 7 50 0;
#X connect 44 0 36 0;
#X connect 45 0 37 0;
#X connect 46 0 38 0;
#X connect 47 0 39 0;
#X connect 48 0 40 0;
#X connect 49 0 41 0;
#X connect 50 0 35 0;
#X connect 51 0 52 0;
#X restore 17 162 pd set_rainwaves;
#X obj 18 22 vradio 15 1 0 9 C empty empty 0 -8 0 10 -262144 -228856
-1 0;
#X obj 33 22 vradio 15 1 0 9 C$ empty empty 0 -8 0 10 -1 -33289 -1
0;
#X obj 48 22 vradio 15 1 0 9 D empty empty 0 -8 0 10 -262144 -228856
-1 0;
#X obj 63 22 vradio 15 1 0 9 D$ empty empty 0 -8 0 10 -1 -33289 -1
0;
#X obj 78 22 vradio 15 1 0 9 E empty empty 0 -8 0 10 -262144 -228856
-1 0;
#X obj 93 22 vradio 15 1 0 9 F empty empty 0 -8 0 10 -262144 -228856
-1 0;
#X obj 108 22 vradio 15 1 0 9 F$ empty empty 0 -8 0 10 -1 -33289 -1
0;
#X obj 123 22 vradio 15 1 0 9 G empty empty 0 -8 0 10 -262144 -228856
-1 0;
#X obj 138 22 vradio 15 1 0 9 G$ empty empty 0 -8 0 10 -1 -33289 -1
0;
#X obj 153 22 vradio 15 1 0 9 A empty empty 0 -8 0 10 -262144 -228856
-1 0;
#X obj 168 22 vradio 15 1 0 9 A$ empty empty 0 -8 0 10 -1 -33289 -1
0;
#X obj 183 22 vradio 15 1 0 9 B empty empty 0 -8 0 10 -262144 -228856
-1 0;
#X text 8 22 1;
#X text 8 37 0;
#X text 2 52 -1;
#X text 2 67 -2;
#X text 2 82 -3;
#X text 2 97 -4;
#X text 2 112 -5;
#X text 2 143 -7;
#X text 2 127 -6;
#X text 23 7 C;
#X text 53 7 D;
#X text 83 7 E;
#X text 95 7 F;
#X text 128 7 G;
#X text 158 7 A;
#X text 188 6 B;
#X floatatom 210 23 8 0 0 2 Brainwave br -;
#X floatatom 210 57 8 0 0 2 Original_BPM vbn 1ww;
#X floatatom 290 23 8 0 0 2 Isochronic_Tone 2re -;
#X floatatom 290 56 8 0 0 2 1/2_BPM 4re 2ww;
#X floatatom 210 94 8 0 0 2 1/4_BPM 5re 3ww;
#X floatatom 290 93 8 0 0 2 1/8_BPM 6re 4ww;
#X floatatom 210 131 8 0 0 2 1/12_BPM 7re 5ww;
#X floatatom 290 130 8 0 0 2 1/16_BPM 8re 6ww;
#X floatatom 211 168 8 0 0 2 1/24_BPM 9re 7ww;
#X floatatom 291 167 8 0 0 2 1/32_BPM 10re 8ww;
#X obj 399 26 vradio 15 1 0 8 fee empty empty 0 -8 0 10 -262144 -1
-1 7;
#X floatatom 367 167 8 0 0 1 BPM bapis -;
#X text 377 26 1/1;
#X text 377 56 1/4;
#X text 377 42 1/2;
#X text 377 72 1/8;
#X text 371 87 1/12;
#X text 371 101 1/16;
#X text 371 116 1/24;
#X text 371 131 1/32;
#X text 15 200 Isochoronic BPM Calculator By: Golden Pills, f 28;
